# xmcd
#
# Track frame offsets:
#	150
#	8444
#	21083
#	24839
#	30987
#	38581
#	42153
#	46431
#	52759
#	60597
#	67294
#	79026
#	86059
#	91988
#	98357
#	106733
#	113416
#	127760
#	130620
#	138033
#	146469
#	152559
#	156694
#	162090
#	173075
#	189420
#	194732
#	206378
#	220350
#	231265
#	240155
#	248637
#	258237
#	274695
#	286730
#
# Disc length: 3956 seconds
# Revision: 0
# Processed by: cddbd v1.5.2PL0 Copyright (c) Steve Scherf et al.
# Submitted via: dBpowerAMP V12.0
#
DISCID=b40f7223
DTITLE=董運昌 - 神奇烏克
DYEAR=2013
DGENRE=Country
TTITLE0=淚
TTITLE1=卡農
TTITLE2=河水
TTITLE3=祈禱
TTITLE4=送別
TTITLE5=小星星
TTITLE6=小蜜蜂
TTITLE7=太湖船
TTITLE8=平安夜
TTITLE9=老漁翁
TTITLE10=快樂頌
TTITLE11=阿里郎
TTITLE12=紅蜻蜓
TTITLE13=野玫瑰
TTITLE14=綠袖子
TTITLE15=畢業歌
TTITLE16=天天想你
TTITLE17=生日快樂
TTITLE18=奇異恩典
TTITLE19=阿德麗塔
TTITLE20=耶誕鈴聲
TTITLE21=春神來了
TTITLE22=喔 蘇珊娜
TTITLE23=鳩羅舞曲
TTITLE24=陽明春曉
TTITLE25=踏血尋梅
TTITLE26=山頂的黑狗兄
TTITLE27=古老的大鐘
TTITLE28=流浪到淡水
TTITLE29=甜蜜的家庭
TTITLE30=愛的羅曼史
TTITLE31=史卡波羅市集
TTITLE32=我不會喜歡你
TTITLE33=失戀陣線聯盟
TTITLE34=月亮代表我的心
EXTD=
EXTT0=
EXTT1=
EXTT2=
EXTT3=
EXTT4=
EXTT5=
EXTT6=
EXTT7=
EXTT8=
EXTT9=
EXTT10=
EXTT11=
EXTT12=
EXTT13=
EXTT14=
EXTT15=
EXTT16=
EXTT17=
EXTT18=
EXTT19=
EXTT20=
EXTT21=
EXTT22=
EXTT23=
EXTT24=
EXTT25=
EXTT26=
EXTT27=
EXTT28=
EXTT29=
EXTT30=
EXTT31=
EXTT32=
EXTT33=
EXTT34=
PLAYORDER=
